<svg width="901" height="331" viewBox="0 0 901 331" fill="none" xmlns="http://www.w3.org/2000/svg">
<g filter="url(#filter0_i_2_23)">
<path d="M332.292 197.929C-400.936 -86.663 249.853 -185.609 666.901 -199.508L1086.16 -196.738L1201.67 89.4711C1217.39 244.204 1065.52 482.522 332.292 197.929Z" fill="#CCD1D9"/>
</g>
<path d="M666.907 -199.008C562.661 -195.533 443.814 -186.744 335.638 -171.071C227.443 -155.394 129.978 -132.838 68.4682 -101.853C37.7055 -86.3564 16.0198 -68.7926 6.43148 -49.0045C-3.13021 -29.2713 -0.70945 -7.21755 17.0031 17.4302C34.7331 42.102 67.7582 69.3241 119.299 99.2806C170.831 129.232 240.834 161.894 332.473 197.463C699.06 339.749 920.193 351.262 1047.68 307.974C1111.4 286.335 1151.73 251.004 1175.14 211.462C1198.55 171.936 1205.09 128.168 1201.18 89.5923L1085.83 -196.24L666.918 -199.008C666.914 -199.008 666.911 -199.008 666.907 -199.008Z" stroke="#CCCCCC"/>
<defs>
<filter id="filter0_i_2_23" x="0.403137" y="-199.508" width="1202.34" height="534.216" filterUnits="userSpaceOnUse" color-interpolation-filters="sRGB">
<feFlood flood-opacity="0" result="BackgroundImageFix"/>
<feBlend mode="normal" in="SourceGraphic" in2="BackgroundImageFix" result="shape"/>
<feColorMatrix in="SourceAlpha" type="matrix" values="0 0 0 0 0 0 0 0 0 0 0 0 0 0 0 0 0 0 127 0" result="hardAlpha"/>
<feOffset dy="4"/>
<feGaussianBlur stdDeviation="2"/>
<feComposite in2="hardAlpha" operator="arithmetic" k2="-1" k3="1"/>
<feColorMatrix type="matrix" values="0 0 0 0 0 0 0 0 0 0 0 0 0 0 0 0 0 0 0.25 0"/>
<feBlend mode="normal" in2="shape" result="effect1_innerShadow_2_23"/>
</filter>
</defs>
</svg>
