<svg width="809" height="206" viewBox="0 0 809 206" fill="none" xmlns="http://www.w3.org/2000/svg">
<g filter="url(#filter0_b_41_8)">
<path d="M256.249 323.99C-321.123 163.718 213.931 56.0268 553.63 22.2149L894.058 0.127208L969.496 196.992C972.319 306.104 833.622 484.261 256.249 323.99Z" fill="#B2B2B2"/>
<path d="M553.671 22.7133C468.76 31.1652 371.645 44.2333 282.757 61.5841C193.853 78.938 113.223 100.568 61.2586 126.129C35.2653 138.914 16.5235 152.647 7.47021 167.253C2.95126 174.544 0.85295 182.041 1.45696 189.75C2.06122 197.464 5.37417 205.438 11.7608 213.671C24.5468 230.154 49.5907 247.599 89.5339 265.94C129.463 284.274 184.225 303.478 256.383 323.508C545.031 403.633 723.928 399.132 830.277 361.039C936.536 322.979 970.366 251.395 968.999 197.091L893.722 0.650022L553.68 22.7124C553.677 22.7127 553.674 22.713 553.671 22.7133Z" stroke="#CCCCCC"/>
</g>
<defs>
<filter id="filter0_b_41_8" x="-3.14471" y="-3.8728" width="976.683" height="395.861" filterUnits="userSpaceOnUse" color-interpolation-filters="sRGB">
<feFlood flood-opacity="0" result="BackgroundImageFix"/>
<feGaussianBlur in="BackgroundImageFix" stdDeviation="2"/>
<feComposite in2="SourceAlpha" operator="in" result="effect1_backgroundBlur_41_8"/>
<feBlend mode="normal" in="SourceGraphic" in2="effect1_backgroundBlur_41_8" result="shape"/>
</filter>
</defs>
</svg>
