<svg width="1212" height="270" viewBox="0 0 1212 270" fill="none" xmlns="http://www.w3.org/2000/svg">
<g filter="url(#filter0_i_2_23)">
<path d="M387.107 188.088C-489.683 -28.3851 328.365 -206.289 846.989 -268.182L1366.47 -312.78L1477.24 -24.6009C1479.19 136.492 1263.9 404.561 387.107 188.088Z" fill="#B2B2B2"/>
</g>
<path d="M847.048 -267.685C717.403 -252.213 569.048 -229.492 433.143 -200.731C297.226 -171.968 173.801 -137.173 93.9899 -97.5666C54.0729 -77.7578 25.1427 -56.7817 10.982 -34.8181C3.90954 -23.8484 0.53144 -12.6483 1.28971 -1.22579C2.0482 10.199 6.94821 21.8998 16.5266 33.8623C35.6977 57.8054 73.5448 82.7146 134.057 108.409C194.553 134.097 277.642 160.546 387.227 187.602C825.582 295.829 1098.49 282.906 1261.53 222.861C1424.48 162.849 1477.67 55.7842 1476.74 -24.5052L1366.14 -312.249L847.048 -267.685Z" stroke="#CCCCCC"/>
<defs>
<filter id="filter0_i_2_23" x="0.68515" y="-312.78" width="1476.57" height="585.894" filterUnits="userSpaceOnUse" color-interpolation-filters="sRGB">
<feFlood flood-opacity="0" result="BackgroundImageFix"/>
<feBlend mode="normal" in="SourceGraphic" in2="BackgroundImageFix" result="shape"/>
<feColorMatrix in="SourceAlpha" type="matrix" values="0 0 0 0 0 0 0 0 0 0 0 0 0 0 0 0 0 0 127 0" result="hardAlpha"/>
<feOffset dy="4"/>
<feGaussianBlur stdDeviation="2"/>
<feComposite in2="hardAlpha" operator="arithmetic" k2="-1" k3="1"/>
<feColorMatrix type="matrix" values="0 0 0 0 0 0 0 0 0 0 0 0 0 0 0 0 0 0 0.25 0"/>
<feBlend mode="normal" in2="shape" result="effect1_innerShadow_2_23"/>
</filter>
</defs>
</svg>
